{"title":"Jersey Girl (1992) DVDRip [Majstor Dane]","uid":9107240,"size":780152818,"categoryP":"video","categoryS":"movies","magnet":"?xt=urn:btih:acabab354523848f503819649ad2bf1fe7ab6353&amp;dn=Jersey+Girl+%281992%29+DVDRip+%5BMajstor+Dane%5D&amp;tr=udp%3A%2F%2Ftracker.openbittorrent.com%3A80&amp;tr=udp%3A%2F%2Fopen.demonii.com%3A1337&amp;tr=udp%3A%2F%2Ftracker.coppersurfer.tk%3A6969&amp;tr=udp%3A%2F%2Fexodus.desync.com%3A6969","seeders":5,"leechers":0,"uploader":"TheMajstorDane","files":9,"time":1382903998,"description":" &lt;a href=&quot;http://www.imdb.com/title/tt0104550/&quot; rel=&quot;nofollow&quot; target=&quot;_NEW&quot;&gt;http://www.imdb.com/title/tt0104550/&lt;/a&gt;\n\nJersey Girl (1992) - Comedy , Drama , Romance\n\n//bayimg.com/IaBfgaAfH\n//bayimg.com/iaBFoAaFh\n//bayimg.com/jabFaaAFH\n//bayimg.com/jABfBAAFH\n\n\nMedia Info:\n\nGeneral\nComplete name                    : Jersey Girl (1992) DVDRip [Majstor Dane].avi\n\nFormat                           : AVI\nFormat/Info                      : Audio Video Interleave\nFile size                        : 744 MiB\nDuration                         : 1h 35mn\nOverall bit rate                 : 1 085 Kbps\nWriting application              : MEncoder SVN-r30881(20100311-gcc4.3.3)\nWriting library                  : MPlayer\n\nVideo\nID                               : 0\nFormat                           : MPEG-4 Visual\nFormat profile                   : Advanced Simple@L5\nFormat settings, BVOP            : 2\nFormat settings, QPel            : No\nFormat settings, GMC             : No warppoints\nFormat settings, Matrix          : Default (H.263)\nCodec ID                         : XVID\nCodec ID/Hint                    : XviD\nDuration                         : 1h 35mn\nBit rate                         : 945 Kbps\nWidth                            : 560 pixels\nHeight                           : 416 pixels\nDisplay aspect ratio             : 4:3\nFrame rate                       : 23.976 fps\nColor space                      : YUV\nChroma subsampling               : 4:2:0\nBit depth                        : 8 bits\nScan type                        : Progressive\nCompression mode                 : Lossy\nBits/(Pixel*Frame)               : 0.169\nStream size                      : 648 MiB (87%)\nWriting library                  : XviD 1.2.1 (UTC 2008-12-04)\n\nAudio\nID                               : 1\nFormat                           : MPEG Audio\nFormat version                   : Version 1\nFormat profile                   : Layer 3\nMode                             : Joint stereo\nMode extension                   : MS Stereo\nCodec ID                         : 55\nCodec ID/Hint                    : MP3\nDuration                         : 1h 35mn\nBit rate mode                    : Constant\nBit rate                         : 128 Kbps\nChannel(s)                       : 2 channels\nSampling rate                    : 44.1 KHz\nCompression mode                 : Lossy\nDelay relative to video          : 42ms\nStream size                      : 87.7 MiB (12%)\nAlignment                        : Aligned on interleaves\nInterleave, duration             : 26 ms (0.63 video frame)\nInterleave, preload duration     : 522 ms\n\nUploaded by: Majstor Dane (c)2012\n\n","torrent":{"xt":"urn:btih:acabab354523848f503819649ad2bf1fe7ab6353","amp;dn":"Jersey+Girl+%281992%29+DVDRip+%5BMajstor+Dane%5D","amp;tr":["udp%3A%2F%2Ftracker.openbittorrent.com%3A80","udp%3A%2F%2Fopen.demonii.com%3A1337","udp%3A%2F%2Ftracker.coppersurfer.tk%3A6969","udp%3A%2F%2Fexodus.desync.com%3A6969"],"infoHash":"acabab354523848f503819649ad2bf1fe7ab6353","infoHashBuffer":{"type":"Buffer","data":[172,171,171,53,69,35,132,143,80,56,25,100,154,210,191,31,231,171,99,83]},"announce":[],"urlList":[]}}